<!--?xml version="1.0" encoding="utf-8"?-->
<!-- Generator: Adobe Illustrator 25.2.3, SVG Export Plug-In . SVG Version: 6.00 Build 0)  -->
<svg version="1.1" id="_x34_" xmlns="http://www.w3.org/2000/svg" xmlns:xlink="http://www.w3.org/1999/xlink" x="0px" y="0px" viewBox="0 0 800 511.548" style="width: 512px;" xml:space="preserve">
<style type="text/css">
	.st0{fill:#FFFFFF;}
</style>
<g>
	<path class="st0" d="M753.684,105.627c-45.982-82.912-99.571-92.608-353.683-92.839C145.887,13.02,92.298,22.715,46.316,105.627
		c-27.98,50.49-26.494,133.314-26.21,133.346c-0.279,0.033-1.768,82.854,26.209,133.344c39.588,71.374,84.806,88.493,258.713,92.022
		c22.492,30.068,43.764,34.42,43.764,34.42c4.62-4.942,7.663-24.03,8.946-33.751c13.44,0.089,27.51,0.135,42.264,0.148
		c254.115-0.227,307.695-9.924,353.685-92.839c27.977-50.49,26.488-133.311,26.209-133.344
		C780.178,238.942,781.664,156.117,753.684,105.627z" style="fill: rgb(255, 255, 255); stroke-width: 8px; stroke: rgb(0, 0, 0);"></path>
</g>
</svg>
